<svg width="59" height="45" viewBox="0 0 59 45" fill="none" xmlns="http://www.w3.org/2000/svg">
<rect width="58" height="44" transform="translate(0.630005 0.5)" fill="white"/>
<path d="M33.13 24.5H32.34L32.06 24.23C33.0739 23.054 33.6311 21.5527 33.63 20C33.63 18.7144 33.2488 17.4577 32.5346 16.3888C31.8203 15.3199 30.8052 14.4868 29.6174 13.9948C28.4297 13.5028 27.1228 13.3741 25.8619 13.6249C24.601 13.8757 23.4429 14.4948 22.5338 15.4038C21.6248 16.3129 21.0057 17.471 20.7549 18.7319C20.5041 19.9928 20.6328 21.2997 21.1248 22.4874C21.6168 23.6752 22.4499 24.6903 23.5188 25.4046C24.5877 26.1188 25.8444 26.5 27.13 26.5C28.74 26.5 30.22 25.91 31.36 24.93L31.63 25.21V26L36.63 30.99L38.12 29.5L33.13 24.5ZM27.13 24.5C24.64 24.5 22.63 22.49 22.63 20C22.63 17.51 24.64 15.5 27.13 15.5C29.62 15.5 31.63 17.51 31.63 20C31.63 22.49 29.62 24.5 27.13 24.5Z" fill="#707070"/>
</svg>
