<svg width="41" height="41" viewBox="0 0 41 41" fill="none" xmlns="http://www.w3.org/2000/svg">
<rect x="1" y="1.43994" width="39" height="39" rx="19.5" fill="navy"/>
<rect x="1" y="1.43994" width="39" height="39" rx="19.5" stroke="white"/>
<path d="M30.5 20.9399C30.5 15.4199 26.02 10.9399 20.5 10.9399C14.98 10.9399 10.5 15.4199 10.5 20.9399C10.5 25.7799 13.94 29.8099 18.5 30.7399V23.9399H16.5V20.9399H18.5V18.4399C18.5 16.5099 20.07 14.9399 22 14.9399H24.5V17.9399H22.5C21.95 17.9399 21.5 18.3899 21.5 18.9399V20.9399H24.5V23.9399H21.5V30.8899C26.55 30.3899 30.5 26.1299 30.5 20.9399Z" fill="white"/>
</svg>
