<svg width="41" height="41" viewBox="0 0 41 41" fill="none" xmlns="http://www.w3.org/2000/svg">
<rect x="1" y="1.43994" width="39" height="39" rx="19.5" fill="#00262B"/>
<rect x="1" y="1.43994" width="39" height="39" rx="19.5" stroke="#00262B"/>
<g clip-path="url(#clip0_3_320)">
<path d="M6.5 8.94544C6.5 7.83769 7.4205 6.93994 8.55625 6.93994H32.4437C33.5795 6.93994 34.5 7.83769 34.5 8.94544V32.9344C34.5 34.0422 33.5795 34.9399 32.4437 34.9399H8.55625C7.4205 34.9399 6.5 34.0422 6.5 32.9344V8.94544ZM15.1502 30.3794V17.7357H10.9485V30.3794H15.1502ZM13.0503 16.0084C14.515 16.0084 15.4267 15.0389 15.4267 13.8244C15.4005 12.5837 14.5168 11.6404 13.0783 11.6404C11.6398 11.6404 10.7 12.5854 10.7 13.8244C10.7 15.0389 11.6118 16.0084 13.0222 16.0084H13.0503ZM21.6393 30.3794V23.3182C21.6393 22.9402 21.6672 22.5622 21.7792 22.2927C22.082 21.5384 22.7733 20.7562 23.9353 20.7562C25.456 20.7562 26.0632 21.9147 26.0632 23.6157V30.3794H30.265V23.1274C30.265 19.2424 28.193 17.4364 25.428 17.4364C23.1985 17.4364 22.1993 18.6614 21.6393 19.5242V19.5679H21.6113C21.6205 19.5533 21.6299 19.5387 21.6393 19.5242V17.7357H17.4392C17.4917 18.9222 17.4392 30.3794 17.4392 30.3794H21.6393Z" fill="white"/>
</g>
<defs>
<clipPath id="clip0_3_320">
<rect width="28" height="28" fill="white" transform="translate(6.5 6.93994)"/>
</clipPath>
</defs>
</svg>
