<svg width="41" height="41" viewBox="0 0 41 41" fill="none" xmlns="http://www.w3.org/2000/svg">
<rect x="1" y="1.43994" width="39" height="39" rx="19.5" fill="#00262B"/>
<rect x="1" y="1.43994" width="39" height="39" rx="19.5" stroke="#00262B"/>
<g clip-path="url(#clip0_3_317)">
<path d="M16.039 31.44C25.096 31.44 30.0505 23.9355 30.0505 17.439C30.0505 17.229 30.0505 17.016 30.0415 16.806C31.0061 16.1077 31.8386 15.2432 32.5 14.253C31.599 14.6503 30.6441 14.9121 29.6665 15.03C30.6963 14.4145 31.4676 13.446 31.837 12.3045C30.8695 12.8777 29.8105 13.2801 28.7065 13.494C27.9643 12.7035 26.9821 12.1799 25.9121 12.0041C24.8422 11.8284 23.7441 12.0104 22.788 12.5219C21.8319 13.0334 21.0712 13.8459 20.6237 14.8336C20.1761 15.8212 20.0668 16.9289 20.3125 17.985C18.3546 17.8868 16.4392 17.3782 14.6906 16.4921C12.9419 15.606 11.399 14.3623 10.162 12.8415C9.53401 13.9261 9.34236 15.2091 9.62597 16.4299C9.90958 17.6507 10.6472 18.7178 11.689 19.4145C10.9083 19.388 10.1448 19.1783 9.46 18.8025V18.87C9.46135 20.0062 9.85496 21.1071 10.5743 21.9866C11.2937 22.8662 12.2946 23.4703 13.408 23.697C12.9854 23.8134 12.5488 23.8715 12.1105 23.8695C11.8015 23.8704 11.4931 23.8418 11.1895 23.784C11.5042 24.7621 12.1169 25.6173 12.9419 26.2297C13.7668 26.8422 14.7627 27.1813 15.79 27.1995C14.0448 28.5702 11.8891 29.3136 9.67 29.31C9.27898 29.3117 8.88823 29.2891 8.5 29.2425C10.7523 30.6784 13.3679 31.4408 16.039 31.44Z" fill="white"/>
</g>
<defs>
<clipPath id="clip0_3_317">
<rect width="24" height="24" fill="white" transform="translate(8.5 8.93994)"/>
</clipPath>
</defs>
</svg>
