<svg width="41" height="41" viewBox="0 0 41 41" fill="none" xmlns="http://www.w3.org/2000/svg">
<rect x="1" y="1.43994" width="39" height="39" rx="19.5" fill="#00262B"/>
<rect x="1" y="1.43994" width="39" height="39" rx="19.5" stroke="#00262B"/>
<path d="M19.0417 22.1533C19.0417 21.4883 18.4933 20.9399 17.8283 20.9399C17.1633 20.9399 16.615 21.4883 16.615 22.1533C16.615 22.4751 16.7428 22.7837 16.9704 23.0112C17.1979 23.2388 17.5065 23.3666 17.8283 23.3666C18.1501 23.3666 18.4587 23.2388 18.6863 23.0112C18.9138 22.7837 19.0417 22.4751 19.0417 22.1533ZM22.9383 24.9183C22.4133 25.4433 21.2933 25.6299 20.5 25.6299C19.7067 25.6299 18.5867 25.4433 18.0617 24.9183C18.0333 24.8879 17.999 24.8637 17.9608 24.8471C17.9227 24.8306 17.8816 24.822 17.84 24.822C17.7984 24.822 17.7573 24.8306 17.7192 24.8471C17.681 24.8637 17.6467 24.8879 17.6183 24.9183C17.5879 24.9467 17.5637 24.981 17.5472 25.0191C17.5306 25.0572 17.5221 25.0984 17.5221 25.1399C17.5221 25.1815 17.5306 25.2226 17.5472 25.2608C17.5637 25.2989 17.5879 25.3332 17.6183 25.3616C18.4467 26.1899 20.0333 26.2599 20.5 26.2599C20.9667 26.2599 22.5533 26.1899 23.3817 25.3616C23.412 25.3332 23.4363 25.2989 23.4528 25.2608C23.4694 25.2226 23.4779 25.1815 23.4779 25.1399C23.4779 25.0984 23.4694 25.0572 23.4528 25.0191C23.4363 24.981 23.412 24.9467 23.3817 24.9183C23.265 24.8016 23.0667 24.8016 22.9383 24.9183ZM23.1717 20.9399C22.5067 20.9399 21.9583 21.4883 21.9583 22.1533C21.9583 22.8183 22.5067 23.3666 23.1717 23.3666C23.8367 23.3666 24.385 22.8183 24.385 22.1533C24.385 21.4883 23.8483 20.9399 23.1717 20.9399Z" fill="white"/>
<path d="M20.5 9.27344C14.06 9.27344 8.83331 14.5001 8.83331 20.9401C8.83331 27.3801 14.06 32.6068 20.5 32.6068C26.94 32.6068 32.1666 27.3801 32.1666 20.9401C32.1666 14.5001 26.94 9.27344 20.5 9.27344ZM27.2666 22.4918C27.29 22.6551 27.3016 22.8301 27.3016 23.0051C27.3016 25.6184 24.2566 27.7418 20.5 27.7418C16.7433 27.7418 13.6983 25.6184 13.6983 23.0051C13.6983 22.8301 13.71 22.6551 13.7333 22.4918C13.1383 22.2234 12.73 21.6284 12.73 20.9401C12.7283 20.6056 12.8254 20.278 13.0093 19.9985C13.1931 19.719 13.4555 19.5 13.7634 19.3691C14.0712 19.2382 14.4109 19.2013 14.7398 19.2628C15.0686 19.3244 15.3719 19.4817 15.6116 19.7151C16.79 18.8634 18.4233 18.3268 20.2316 18.2684L21.095 14.1968C21.1066 14.1151 21.1533 14.0451 21.2233 14.0101C21.2933 13.9634 21.375 13.9518 21.4566 13.9634L24.28 14.5701C24.3757 14.3759 24.5217 14.2109 24.7027 14.0922C24.8837 13.9735 25.0932 13.9053 25.3095 13.8949C25.5257 13.8844 25.7408 13.932 25.9324 14.0326C26.1241 14.1333 26.2853 14.2834 26.3994 14.4674C26.5135 14.6514 26.5762 14.8626 26.5812 15.079C26.5861 15.2954 26.5331 15.5092 26.4276 15.6983C26.322 15.8873 26.1678 16.0446 25.981 16.154C25.7942 16.2633 25.5815 16.3207 25.365 16.3201C24.7116 16.3201 24.1866 15.8068 24.1516 15.1651L21.62 14.6284L20.85 18.2684C22.635 18.3268 24.2333 18.8751 25.4 19.7151C25.5788 19.5443 25.7928 19.4147 26.027 19.3352C26.2612 19.2558 26.5099 19.2285 26.7558 19.2552C27.0016 19.2819 27.2386 19.3621 27.4503 19.49C27.6619 19.6179 27.8431 19.7905 27.981 19.9957C28.119 20.2009 28.2105 20.4338 28.249 20.6781C28.2876 20.9224 28.2723 21.1721 28.2043 21.4099C28.1362 21.6476 28.0171 21.8676 27.8551 22.0545C27.6931 22.2414 27.4923 22.3906 27.2666 22.4918Z" fill="white"/>
</svg>
