<svg width="128" height="68" viewBox="0 0 128 68" fill="none" xmlns="http://www.w3.org/2000/svg">
<g clip-path="url(#clip0_3_303)">
<g clip-path="url(#clip1_3_303)">
<g clip-path="url(#clip2_3_303)">
<path d="M125.912 14.3581C125.912 13.7231 125.436 13.4056 124.801 13.4056H123.452V16.3425H124.008V15.3106H124.642L125.357 16.3425H126.071L125.277 15.2312C125.674 15.1519 125.912 14.8344 125.912 14.3581ZM124.722 14.9137H124.008V13.9612H124.722C125.119 13.9612 125.357 14.12 125.357 14.4375C125.357 14.6756 125.119 14.9137 124.722 14.9137ZM124.563 12.0562C122.896 12.0562 121.626 13.4056 121.626 14.9931C121.626 16.5806 122.896 17.93 124.563 17.93C126.23 17.93 127.5 16.5806 127.5 14.9931C127.5 13.4056 126.23 12.0562 124.563 12.0562ZM127.183 14.9931C127.183 16.4219 126.071 17.6125 124.563 17.6125C123.055 17.6125 121.944 16.4219 121.944 14.9931C121.944 13.5644 123.055 12.3737 124.563 12.3737C126.071 12.3737 127.183 13.5644 127.183 14.9931ZM76.5413 12.1356H119.404L107.498 67.6187H53.6812L56.7769 53.5694H0.5L11.5331 1.26123H78.8431L76.5413 12.1356Z" fill="#00262B"/>
<path d="M33.9169 21.581C32.9644 20.6285 31.8532 19.9142 30.5832 19.4379C29.3132 18.9617 27.9638 18.7235 26.6144 18.7235C24.5507 18.7235 22.6457 19.1204 20.82 19.9142C19.0738 20.7079 17.5657 21.8985 16.2957 23.3273C15.0257 24.8354 14.0732 26.5817 13.3588 28.6454C12.6444 30.7092 12.3269 33.011 12.3269 35.4717C12.3269 37.2973 12.6444 38.9642 13.2 40.3135C13.7557 41.7423 14.5494 42.9329 15.5813 43.8854C16.6132 44.8379 17.8038 45.5523 19.1532 46.1079C20.5025 46.5842 21.9313 46.8223 23.4394 46.8223C24.9475 46.8223 26.535 46.6635 27.805 46.2667C29.1544 45.8698 30.345 45.3935 31.2975 44.6792C32.25 43.9648 33.1232 43.2504 33.8375 42.2979C34.4725 41.4248 34.9488 40.3929 35.2663 39.361H30.5832C30.0275 40.3929 29.1544 41.266 28.0432 41.901C26.9319 42.536 25.5032 42.8535 23.6775 42.8535C22.8838 42.8535 22.0107 42.6948 21.2169 42.4567C20.4232 42.1392 19.7088 41.7423 18.9944 41.1073C18.28 40.4723 17.8038 39.6785 17.4069 38.726C17.01 37.7735 16.7719 36.5829 16.7719 35.1542C16.7719 34.916 16.7719 34.6779 16.7719 34.4398C16.7719 34.2017 16.7719 33.9635 16.8513 33.7254H36.6157C36.695 33.4873 36.695 33.1698 36.7744 32.7729C36.7744 32.376 36.8538 32.0585 36.8538 31.6617C36.8538 31.2648 36.9332 30.9473 36.9332 30.5504C36.9332 30.1535 36.9332 29.836 36.9332 29.5979C36.9332 27.8517 36.6157 26.2642 36.06 24.9148C35.5838 23.6448 34.79 22.5335 33.9169 21.581ZM32.4088 29.836C32.4088 30.0742 32.4088 30.2329 32.3294 30.3123H17.4863C17.8038 29.1217 18.28 28.0898 18.7563 27.1373C19.3119 26.1848 19.9469 25.391 20.6613 24.6767C21.3757 23.9623 22.2488 23.486 23.1219 23.0892C24.0744 22.6923 25.0269 22.5335 26.0588 22.5335C27.0907 22.5335 27.9638 22.6923 28.7575 23.0892C29.5513 23.4067 30.1863 23.8829 30.7419 24.5179C31.2975 25.1529 31.6944 25.7879 31.9325 26.661C32.1707 27.4548 32.3294 28.3279 32.3294 29.201C32.4088 29.3598 32.4088 29.5979 32.4088 29.836ZM92.2575 39.5992L101.783 60.4748H91.94L85.5107 46.4254H84.7169L72.7313 60.4748H62.9681L81.5419 38.5673L72.9694 19.2792H82.9707L88.6857 32.6142H89.2413L100.036 19.2792H109.958L92.2575 39.5992ZM65.6669 8.40479L62.2538 24.2004H61.8569C61.6188 23.4067 61.2219 22.6129 60.7457 21.9779C60.2694 21.2635 59.6344 20.7079 58.92 20.2317C58.2057 19.7554 57.4119 19.3585 56.5388 19.1204C55.6657 18.8823 54.7132 18.7235 53.7607 18.7235C52.4113 18.7235 51.1413 18.8823 49.9507 19.2792C48.76 19.676 47.6488 20.2317 46.5375 20.946C45.5057 21.6604 44.5532 22.5335 43.68 23.5654C42.8069 24.5973 42.0925 25.7085 41.4575 26.9785C40.8225 28.2485 40.3463 29.5979 40.0288 31.106C39.7113 32.6142 39.5525 34.1223 39.5525 35.7892C39.5525 37.456 39.7907 38.9642 40.3463 40.3929C40.9019 41.7423 41.6163 42.9329 42.4894 43.8854C43.3625 44.8379 44.4738 45.5523 45.6644 46.1079C46.855 46.6635 48.125 46.9017 49.5538 46.9017C51.3 46.9017 52.8875 46.5048 54.475 45.7904C55.9832 45.076 57.2531 44.0442 58.2056 42.6948H58.6025L57.8088 46.4254H62.0157L70.1119 8.40479H65.6669ZM60.1107 35.2335C59.6344 36.821 58.92 38.1704 57.9675 39.2817C57.015 40.3929 55.9832 41.3454 54.7925 41.9804C53.6019 42.6154 52.2525 43.0123 50.8238 43.0123C49.7919 43.0123 48.9188 42.8535 48.0457 42.4567C47.2519 42.0598 46.5375 41.5835 45.9025 40.8692C45.2675 40.1548 44.8707 39.361 44.5532 38.4085C44.2357 37.456 44.0769 36.4242 44.0769 35.2335C44.0769 33.4079 44.315 31.741 44.8707 30.1535C45.4263 28.566 46.0613 27.296 46.9344 26.1848C47.8075 25.0735 48.8394 24.2004 50.03 23.5654C51.2207 22.9304 52.57 22.6129 53.9194 22.6129C54.9513 22.6129 55.9832 22.7717 56.7769 23.1685C57.65 23.486 58.3644 24.0417 58.92 24.6767C59.4757 25.3117 59.9519 26.1054 60.2694 27.0579C60.5869 28.0104 60.7457 29.0423 60.7457 30.1535C60.825 31.9792 60.5869 33.646 60.1107 35.2335Z" fill="white"/>
<path d="M20.6613 65.6343V58.9668H22.1694V61.348C22.5663 60.8718 23.0425 60.6337 23.5981 60.6337C24.7888 60.6337 25.7413 61.5862 25.7413 63.1737C25.7413 64.7612 24.7888 65.7137 23.5981 65.7137C23.0425 65.7137 22.5663 65.4756 22.1694 64.9993V65.5549H20.6613V65.6343ZM22.1694 63.9674C22.3281 64.2055 22.725 64.3643 23.1219 64.3643C23.7569 64.3643 24.1538 63.888 24.1538 63.1737C24.1538 62.4593 23.6775 61.983 23.1219 61.983C22.8044 61.983 22.4075 62.1418 22.1694 62.4593V63.9674Z" fill="#00262B"/>
<path d="M26.3763 66.1899C26.4556 66.2693 26.6144 66.2693 26.7731 66.2693C27.0906 66.2693 27.3288 66.1899 27.4081 66.0312L27.4875 65.7931L25.5825 60.9512H27.17L28.2813 63.9674L29.3925 60.9512H31.0594L28.8369 66.3487C28.44 67.3805 27.7256 67.6187 26.7731 67.6187C26.6144 67.6187 26.2969 67.6187 26.1381 67.5393L26.3763 66.1899Z" fill="#00262B"/>
<path d="M48.3631 64.0469C48.3631 65.9519 46.7756 67.5394 44.8706 67.5394C42.9656 67.5394 41.3781 65.9519 41.3781 64.0469V56.8237H43.9181V64.1262C43.9181 64.6819 44.3944 65.1581 44.95 65.1581C45.5056 65.1581 45.9819 64.6819 45.9819 64.1262V56.8237H48.5219V64.0469H48.3631ZM41.2987 65.6344C41.2194 65.4756 41.14 65.3169 41.14 65.1581H37.4887C37.4887 65.1581 38.6 64.2056 39.9494 62.8562C40.6637 62.1419 40.9812 61.2687 40.9812 60.3956C40.9812 59.5225 40.6637 58.57 39.9494 57.935C38.6 56.5856 36.3775 56.5856 35.0281 57.935C34.3137 58.6494 33.9962 59.5225 33.9962 60.3956H36.5362C36.5362 60.1575 36.6156 59.84 36.8537 59.6812C37.2506 59.2844 37.8856 59.2844 38.2825 59.6812C38.6794 60.0781 38.6794 60.7131 38.2825 61.11C38.2825 61.11 36.2981 63.015 34.5519 64.6819C34.2344 64.9994 34.0756 65.3962 34.0756 65.8725C34.0756 66.825 34.8694 67.6187 35.8219 67.6187H43.2831C42.8862 67.3806 42.5687 67.1425 42.2512 66.825C41.775 66.5075 41.4575 66.1106 41.2987 65.6344Z" fill="#00262B"/>
</g>
</g>
</g>
<defs>
<clipPath id="clip0_3_303">
<rect width="127" height="67" fill="white" transform="translate(0.5 0.939941)"/>
</clipPath>
<clipPath id="clip1_3_303">
<rect width="127" height="67" fill="white" transform="translate(0.5 0.939941)"/>
</clipPath>
<clipPath id="clip2_3_303">
<rect width="127" height="66.3575" fill="white" transform="translate(0.5 1.26123)"/>
</clipPath>
</defs>
</svg>
