<svg width="61" height="45" viewBox="0 0 61 45" fill="none" xmlns="http://www.w3.org/2000/svg">
<g clip-path="url(#clip0_3_474)">
<g clip-path="url(#clip1_3_474)">
<g clip-path="url(#clip2_3_474)">
<path d="M38.8552 11.1702L40.0109 5.63992H6.06721L0.5 32.2291H28.8808L27.3181 39.3601H54.5041L60.5 11.1702H38.8552Z" fill="#02262B"/>
<path d="M12.0685 28.8345C11.2991 28.8345 10.572 28.7086 9.88831 28.4557C9.20462 28.204 8.60775 27.8317 8.09878 27.3401C7.5898 26.8485 7.18827 26.244 6.89309 25.5256C6.59791 24.8072 6.45032 23.9824 6.45032 23.0502C6.45032 21.7762 6.62721 20.615 6.98208 19.5677C7.33695 18.5205 7.83072 17.623 8.46341 16.8742C9.0961 16.1265 9.85467 15.547 10.7402 15.1367C11.6247 14.7265 12.5938 14.5214 13.6454 14.5214C14.3551 14.5214 15.0279 14.6451 15.6661 14.8937C16.3031 15.1422 16.8609 15.5025 17.3395 15.9778C17.8181 16.452 18.199 17.0359 18.4811 17.7283C18.7633 18.4206 18.9044 19.2161 18.9044 20.1136C18.9044 20.2503 18.9 20.4109 18.8914 20.5944C18.8827 20.7788 18.8696 20.9666 18.8523 21.1587C18.8349 21.3508 18.8176 21.5396 18.8013 21.723C18.7839 21.9064 18.7633 22.0627 18.7373 22.1907H8.77162C8.76293 22.3112 8.75642 22.4262 8.75208 22.5369C8.74774 22.6487 8.74557 22.7637 8.74557 22.8831C8.74557 23.5928 8.84867 24.1973 9.05378 24.6976C9.25888 25.1979 9.52585 25.6059 9.85576 25.9228C10.1846 26.2397 10.5546 26.4676 10.9649 26.6087C11.3751 26.7498 11.7896 26.8203 12.2085 26.8203C13.1234 26.8203 13.8592 26.6619 14.4148 26.3461C14.9704 26.0302 15.3937 25.6027 15.6845 25.0633H18.0319C17.8864 25.594 17.6466 26.0899 17.3134 26.5512C16.9803 27.0124 16.5592 27.4128 16.0502 27.7503C15.5413 28.0878 14.9509 28.3537 14.2802 28.5458C13.6096 28.7379 12.8716 28.8345 12.0685 28.8345ZM16.5701 20.4077C16.5787 20.3654 16.5852 20.2861 16.5896 20.17C16.5939 20.055 16.5961 19.941 16.5961 19.8304C16.5961 19.3767 16.5299 18.947 16.3975 18.5411C16.2651 18.1352 16.0665 17.7782 15.8006 17.47C15.5358 17.1618 15.2059 16.9187 14.8131 16.7385C14.4191 16.5595 13.9623 16.4694 13.4403 16.4694C12.9096 16.4694 12.4136 16.5638 11.9524 16.7516C11.4901 16.9393 11.0712 17.2074 10.6957 17.5535C10.3191 17.8997 9.99467 18.3143 9.72119 18.7972C9.44771 19.2801 9.22958 19.8173 9.0668 20.4066H16.5701V20.4077Z" fill="white"/>
<path d="M25.1976 28.8345C24.5052 28.8345 23.8552 28.7042 23.2474 28.4427C22.6397 28.1822 22.108 27.8078 21.6511 27.3206C21.1931 26.8333 20.8317 26.2429 20.5669 25.5506C20.3021 24.8582 20.1697 24.0844 20.1697 23.2293C20.1697 22.4002 20.2533 21.6069 20.4193 20.8505C20.5854 20.0941 20.823 19.393 21.1312 18.7473C21.4395 18.1016 21.8084 17.5177 22.2404 16.9968C22.6723 16.4748 23.1509 16.031 23.6772 15.6631C24.2035 15.2952 24.7711 15.013 25.3832 14.8166C25.9941 14.6202 26.6333 14.5214 27.3008 14.5214C27.7967 14.5214 28.2688 14.5898 28.7181 14.7265C29.1674 14.8633 29.5732 15.0532 29.9368 15.2974C30.3003 15.5415 30.6118 15.8356 30.8733 16.1818C31.1338 16.528 31.3248 16.9067 31.4442 17.317H31.6493L33.3552 9.27435H35.5995L31.4952 28.5914H29.3659L29.7631 26.7063H29.558C29.0534 27.3651 28.4207 27.8838 27.66 28.2647C26.8992 28.6435 26.0777 28.8345 25.1976 28.8345ZM25.903 26.8463C26.6214 26.8463 27.2856 26.6781 27.8976 26.3395C28.5086 26.002 29.0415 25.5397 29.494 24.9548C29.9476 24.3688 30.3025 23.6807 30.5586 22.8896C30.8147 22.0985 30.9439 21.2455 30.9439 20.3306C30.9439 19.7403 30.8625 19.2107 30.6997 18.7397C30.5369 18.2698 30.3058 17.8693 30.0073 17.5405C29.7078 17.2117 29.3442 16.9567 28.9167 16.7776C28.4891 16.5975 28.0062 16.5085 27.4668 16.5085C26.7571 16.5085 26.0983 16.6669 25.4917 16.9827C24.884 17.2996 24.3587 17.7391 23.9138 18.3034C23.4688 18.8677 23.1183 19.5417 22.8622 20.323C22.6061 21.1044 22.4769 21.9628 22.4769 22.895C22.4769 23.4767 22.5605 24.0106 22.7276 24.4979C22.8947 24.9852 23.127 25.4019 23.4265 25.7481C23.726 26.0943 24.0852 26.3634 24.5041 26.5566C24.923 26.7497 25.3897 26.8463 25.903 26.8463Z" fill="white"/>
<path d="M55.7315 14.8047H50.7254L45.2645 21.5656H44.9954L42.1076 14.8047H37.0439L41.3848 24.6249L32.0139 35.7257H36.9528L42.9671 28.5946H43.373L46.6221 35.7257H51.5914L46.786 25.1165L55.7315 14.8047Z" fill="white"/>
</g>
</g>
</g>
<defs>
<clipPath id="clip0_3_474">
<rect width="60" height="45" fill="white" transform="translate(0.5)"/>
</clipPath>
<clipPath id="clip1_3_474">
<rect width="60" height="45" fill="white" transform="translate(0.5)"/>
</clipPath>
<clipPath id="clip2_3_474">
<rect width="60" height="33.7202" fill="white" transform="translate(0.5 5.63992)"/>
</clipPath>
</defs>
</svg>
